<?xml version="1.0" encoding="utf-8"?>
<!-- Uploaded to: SVG Repo, www.svgrepo.com, Generator: SVG Repo Mixer Tools -->
<svg width="800px" height="800px" viewBox="0 0 24 24" fill="none" xmlns="http://www.w3.org/2000/svg">
<g id="style=stroke">
<g id="arrow-long-right">
<path id="vector (Stroke)" fill-rule="evenodd" clip-rule="evenodd" d="M1.94995 12C1.94995 12.4142 2.28574 12.75 2.69995 12.75L21.2 12.75C21.6142 12.75 21.95 12.4142 21.95 12C21.95 11.5858 21.6142 11.25 21.2 11.25L2.69995 11.25C2.28574 11.25 1.94995 11.5858 1.94995 12Z" fill="#000000"/>
<path id="vector (Stroke)_2" fill-rule="evenodd" clip-rule="evenodd" d="M14.1696 4.46967C13.8767 4.76256 13.8767 5.23744 14.1696 5.53033L20.4625 11.8232C20.5601 11.9209 20.5601 12.0791 20.4625 12.1768L14.1696 18.4697C13.8767 18.7626 13.8767 19.2374 14.1696 19.5303C14.4625 19.8232 14.9374 19.8232 15.2303 19.5303L21.5232 13.2374C22.2066 12.554 22.2066 11.446 21.5232 10.7626L15.2303 4.46967C14.9374 4.17678 14.4625 4.17678 14.1696 4.46967Z" fill="#000000"/>
</g>
</g>
</svg>